<svg width="27" height="34" viewBox="0 0 27 34" fill="none" xmlns="http://www.w3.org/2000/svg">
<path d="M13.308 33.596C12.54 33.5533 11.9427 33.3827 11.516 33.084C11.0893 32.7853 10.748 32.444 10.492 32.06C10.2787 31.676 10.1507 31.3347 10.108 31.036C10.0653 30.7373 10.044 30.588 10.044 30.588C9.916 27.9 9.852 25.34 9.852 22.908C9.852 20.4333 9.87333 18.0653 9.916 15.804C10.0013 13.5427 10.0867 11.3667 10.172 9.276C10.3 7.14267 10.4493 5.052 10.62 3.004C10.62 3.004 10.6413 2.876 10.684 2.62C10.7267 2.364 10.812 2.08667 10.94 1.788C11.1107 1.44666 11.388 1.148 11.772 0.891998C12.1987 0.635999 12.7533 0.507999 13.436 0.507999C14.1613 0.550666 14.7373 0.699998 15.164 0.955997C15.5907 1.16933 15.9107 1.44666 16.124 1.788C16.38 2.12933 16.5507 2.492 16.636 2.876C16.7213 3.21733 16.764 3.516 16.764 3.772C16.8067 3.98533 16.828 4.092 16.828 4.092C16.6573 6.73733 16.5293 9.468 16.444 12.284C16.3587 15.0573 16.2947 18.0013 16.252 21.116C16.252 24.188 16.252 27.452 16.252 30.908C16.252 30.908 16.2307 31.036 16.188 31.292C16.188 31.548 16.0813 31.868 15.868 32.252C15.6973 32.636 15.42 32.956 15.036 33.212C14.652 33.468 14.076 33.596 13.308 33.596ZM0.316 17.66C0.273333 16.9773 0.38 16.4227 0.636 15.996C0.934667 15.5693 1.276 15.2493 1.66 15.036C2.08667 14.8227 2.44933 14.6733 2.748 14.588C3.04667 14.5027 3.196 14.46 3.196 14.46C4.604 14.2467 5.948 14.076 7.228 13.948C8.508 13.82 9.788 13.7347 11.068 13.692C12.348 13.6493 13.628 13.6493 14.908 13.692C16.2307 13.7347 17.6173 13.82 19.068 13.948C20.5187 14.076 22.076 14.2467 23.74 14.46C23.74 14.46 23.868 14.5027 24.124 14.588C24.4227 14.6733 24.7213 14.8227 25.02 15.036C25.3613 15.2493 25.6387 15.5693 25.852 15.996C26.108 16.38 26.2147 16.892 26.172 17.532C26.1293 18.2147 25.9587 18.7693 25.66 19.196C25.404 19.58 25.084 19.8573 24.7 20.028C24.3587 20.1987 23.996 20.3267 23.612 20.412C23.2707 20.4547 22.972 20.476 22.716 20.476C22.5027 20.4333 22.396 20.412 22.396 20.412C20.604 20.1987 18.8973 20.0493 17.276 19.964C15.6973 19.836 14.14 19.772 12.604 19.772C11.1107 19.772 9.57467 19.8147 7.996 19.9C6.41733 19.9853 4.796 20.1133 3.132 20.284C3.132 20.284 2.98267 20.284 2.684 20.284C2.428 20.284 2.108 20.22 1.724 20.092C1.38267 19.9213 1.06267 19.6653 0.764 19.324C0.508 18.94 0.358667 18.3853 0.316 17.66Z" fill="white"/>
</svg>
